<svg xmlns="http://www.w3.org/2000/svg" xmlns:xlink="http://www.w3.org/1999/xlink" width="40" zoomAndPan="magnify" viewBox="0 0 30 30.000001" height="40" preserveAspectRatio="xMidYMid meet" version="1.2"><defs><clipPath id="1863f38d24"><path d="M 0.484375 0 L 29.515625 0 L 29.515625 29.03125 L 0.484375 29.03125 Z M 0.484375 0 "/></clipPath><clipPath id="86f425b3a9"><path d="M 3.128906 4.171875 L 27 4.171875 L 27 25 L 3.128906 25 Z M 3.128906 4.171875 "/></clipPath><clipPath id="fc71e67caf"><path d="M 9.121094 6.097656 L 20.734375 6.097656 L 20.734375 17.710938 L 9.121094 17.710938 Z M 9.121094 6.097656 "/></clipPath></defs><g id="ed54e9df68"><g clip-rule="nonzero" clip-path="url(#1863f38d24)"><path style=" stroke:none;fill-rule:nonzero;fill:#ffffff;fill-opacity:1;" d="M 0.484375 0 L 29.515625 0 L 29.515625 29.03125 L 0.484375 29.03125 Z M 0.484375 0 "/><path style=" stroke:none;fill-rule:nonzero;fill:#ffffff;fill-opacity:1;" d="M 0.484375 0 L 29.515625 0 L 29.515625 29.03125 L 0.484375 29.03125 Z M 0.484375 0 "/></g><g clip-rule="nonzero" clip-path="url(#86f425b3a9)"><path style=" stroke:none;fill-rule:nonzero;fill:#5e17eb;fill-opacity:1;" d="M 25.523438 4.179688 L 4.46875 4.179688 C 4.289062 4.179688 4.121094 4.210938 3.957031 4.28125 C 3.792969 4.347656 3.644531 4.445312 3.519531 4.570312 C 3.394531 4.695312 3.296875 4.84375 3.230469 5.007812 C 3.164062 5.171875 3.128906 5.339844 3.128906 5.519531 L 3.128906 19.683594 C 3.128906 19.859375 3.164062 20.03125 3.230469 20.195312 C 3.296875 20.359375 3.394531 20.503906 3.519531 20.628906 C 3.644531 20.757812 3.792969 20.851562 3.957031 20.921875 C 4.121094 20.988281 4.289062 21.023438 4.46875 21.023438 L 11.492188 21.023438 L 11.21875 22.9375 L 8.871094 22.9375 C 8.765625 22.9375 8.675781 22.976562 8.601562 23.050781 C 8.523438 23.125 8.488281 23.214844 8.488281 23.320312 L 8.488281 24.46875 C 8.488281 24.574219 8.523438 24.664062 8.601562 24.738281 C 8.675781 24.816406 8.765625 24.851562 8.871094 24.851562 L 21.121094 24.851562 C 21.226562 24.851562 21.316406 24.816406 21.390625 24.738281 C 21.46875 24.664062 21.503906 24.574219 21.503906 24.46875 L 21.503906 23.320312 C 21.503906 23.214844 21.46875 23.125 21.390625 23.050781 C 21.316406 22.976562 21.226562 22.9375 21.121094 22.9375 L 18.773438 22.9375 L 18.5 21.023438 L 25.523438 21.023438 C 25.703125 21.023438 25.871094 20.988281 26.035156 20.921875 C 26.199219 20.851562 26.34375 20.757812 26.472656 20.628906 C 26.597656 20.503906 26.695312 20.359375 26.761719 20.195312 C 26.828125 20.03125 26.863281 19.859375 26.863281 19.683594 L 26.863281 5.519531 C 26.863281 5.339844 26.828125 5.171875 26.761719 5.007812 C 26.695312 4.84375 26.597656 4.695312 26.472656 4.570312 C 26.34375 4.445312 26.199219 4.347656 26.035156 4.28125 C 25.871094 4.210938 25.703125 4.179688 25.523438 4.179688 Z M 20.738281 23.703125 L 20.738281 24.085938 L 9.253906 24.085938 L 9.253906 23.703125 Z M 11.992188 22.9375 L 12.265625 21.023438 L 17.726562 21.023438 L 18 22.9375 Z M 26.097656 19.683594 C 26.097656 19.84375 26.042969 19.976562 25.929688 20.089844 C 25.816406 20.203125 25.683594 20.257812 25.523438 20.257812 L 4.46875 20.257812 C 4.308594 20.257812 4.175781 20.203125 4.0625 20.089844 C 3.949219 19.976562 3.894531 19.84375 3.894531 19.683594 L 3.894531 18.726562 L 26.097656 18.726562 Z M 26.097656 17.960938 L 3.894531 17.960938 L 3.894531 5.519531 C 3.894531 5.359375 3.949219 5.226562 4.0625 5.113281 C 4.175781 5 4.308594 4.945312 4.46875 4.945312 L 25.523438 4.945312 C 25.683594 4.945312 25.816406 5 25.929688 5.113281 C 26.042969 5.226562 26.097656 5.359375 26.097656 5.519531 Z M 26.097656 17.960938 "/></g><path style=" stroke:none;fill-rule:nonzero;fill:#5e17eb;fill-opacity:1;" d="M 16.144531 19.109375 L 13.847656 19.109375 C 13.742188 19.109375 13.652344 19.148438 13.578125 19.222656 C 13.5 19.296875 13.464844 19.386719 13.464844 19.492188 C 13.464844 19.597656 13.5 19.6875 13.578125 19.761719 C 13.652344 19.835938 13.742188 19.875 13.847656 19.875 L 16.144531 19.875 C 16.25 19.875 16.339844 19.835938 16.414062 19.761719 C 16.488281 19.6875 16.527344 19.597656 16.527344 19.492188 C 16.527344 19.386719 16.488281 19.296875 16.414062 19.222656 C 16.339844 19.148438 16.25 19.109375 16.144531 19.109375 Z M 16.144531 19.109375 "/><g clip-rule="nonzero" clip-path="url(#fc71e67caf)"><path style=" stroke:none;fill-rule:nonzero;fill:#5e17eb;fill-opacity:1;" d="M 11.164062 15.164062 L 11.164062 16.75 C 11.164062 16.980469 11.085938 17.195312 10.949219 17.367188 L 19.179688 17.367188 C 19.519531 17.367188 19.828125 17.226562 20.050781 17.003906 C 20.273438 16.78125 20.410156 16.472656 20.410156 16.132812 L 20.410156 6.882812 C 20.410156 6.789062 20.375 6.703125 20.3125 6.640625 C 20.25 6.582031 20.164062 6.542969 20.070312 6.542969 L 11.503906 6.542969 C 11.410156 6.542969 11.324219 6.582031 11.265625 6.640625 C 11.203125 6.703125 11.164062 6.789062 11.164062 6.882812 Z M 12.367188 16.222656 C 12.257812 16.222656 12.171875 16.132812 12.171875 16.027344 C 12.171875 15.921875 12.257812 15.832031 12.367188 15.832031 L 19.210938 15.832031 C 19.316406 15.832031 19.402344 15.921875 19.402344 16.027344 C 19.402344 16.132812 19.316406 16.222656 19.210938 16.222656 Z M 12.367188 14.863281 C 12.257812 14.863281 12.171875 14.777344 12.171875 14.667969 C 12.171875 14.5625 12.257812 14.476562 12.367188 14.476562 L 19.210938 14.476562 C 19.316406 14.476562 19.402344 14.5625 19.402344 14.667969 C 19.402344 14.777344 19.316406 14.863281 19.210938 14.863281 Z M 12.367188 13.503906 C 12.257812 13.503906 12.171875 13.417969 12.171875 13.3125 C 12.171875 13.203125 12.257812 13.117188 12.367188 13.117188 L 19.210938 13.117188 C 19.316406 13.117188 19.402344 13.203125 19.402344 13.3125 C 19.402344 13.417969 19.316406 13.503906 19.210938 13.503906 Z M 16.070312 12.148438 C 15.964844 12.148438 15.875 12.0625 15.875 11.953125 C 15.875 11.847656 15.964844 11.757812 16.070312 11.757812 L 19.210938 11.757812 C 19.316406 11.757812 19.402344 11.847656 19.402344 11.953125 C 19.402344 12.0625 19.316406 12.148438 19.210938 12.148438 Z M 16.070312 10.789062 C 15.964844 10.789062 15.875 10.703125 15.875 10.597656 C 15.875 10.488281 15.964844 10.402344 16.070312 10.402344 L 19.210938 10.402344 C 19.316406 10.402344 19.402344 10.488281 19.402344 10.597656 C 19.402344 10.703125 19.316406 10.789062 19.210938 10.789062 Z M 16.070312 9.433594 C 15.964844 9.433594 15.875 9.34375 15.875 9.238281 C 15.875 9.132812 15.964844 9.042969 16.070312 9.042969 L 19.210938 9.042969 C 19.316406 9.042969 19.402344 9.132812 19.402344 9.238281 C 19.402344 9.34375 19.316406 9.433594 19.210938 9.433594 Z M 12.367188 8.074219 C 12.257812 8.074219 12.171875 7.988281 12.171875 7.878906 C 12.171875 7.773438 12.257812 7.6875 12.367188 7.6875 L 19.210938 7.6875 C 19.316406 7.6875 19.402344 7.773438 19.402344 7.878906 C 19.402344 7.988281 19.316406 8.074219 19.210938 8.074219 Z M 12.367188 8.605469 L 15.292969 8.605469 C 15.402344 8.605469 15.488281 8.691406 15.488281 8.800781 L 15.488281 12.402344 C 15.488281 12.507812 15.402344 12.597656 15.292969 12.597656 L 12.367188 12.597656 C 12.257812 12.597656 12.171875 12.507812 12.171875 12.402344 L 12.171875 8.800781 C 12.171875 8.691406 12.257812 8.605469 12.367188 8.605469 Z M 15.101562 8.992188 L 12.558594 8.992188 L 12.558594 12.207031 L 15.101562 12.207031 Z M 10.777344 15.167969 L 10.777344 8.972656 L 9.71875 8.972656 C 9.671875 8.972656 9.625 8.992188 9.59375 9.023438 C 9.5625 9.054688 9.542969 9.097656 9.542969 9.144531 L 9.542969 16.75 C 9.542969 16.921875 9.613281 17.074219 9.726562 17.1875 C 9.835938 17.296875 9.988281 17.367188 10.15625 17.367188 L 10.167969 17.367188 C 10.332031 17.363281 10.484375 17.296875 10.59375 17.1875 C 10.707031 17.074219 10.777344 16.921875 10.777344 16.75 Z M 10.777344 8.582031 L 10.777344 6.882812 C 10.777344 6.679688 10.859375 6.5 10.988281 6.367188 C 11.121094 6.234375 11.304688 6.152344 11.503906 6.152344 L 20.070312 6.152344 C 20.273438 6.152344 20.453125 6.234375 20.585938 6.367188 C 20.71875 6.5 20.800781 6.679688 20.800781 6.882812 L 20.800781 16.132812 C 20.800781 16.578125 20.617188 16.984375 20.324219 17.277344 L 20.324219 17.28125 C 20.027344 17.574219 19.625 17.753906 19.179688 17.753906 L 10.152344 17.753906 C 9.882812 17.753906 9.632812 17.640625 9.453125 17.460938 C 9.269531 17.277344 9.15625 17.027344 9.15625 16.75 L 9.15625 9.144531 C 9.15625 8.992188 9.21875 8.851562 9.320312 8.75 C 9.425781 8.648438 9.566406 8.582031 9.71875 8.582031 Z M 10.777344 8.582031 "/></g></g></svg>