<svg xmlns="http://www.w3.org/2000/svg" xmlns:xlink="http://www.w3.org/1999/xlink" width="50" zoomAndPan="magnify" viewBox="0 0 37.5 37.499999" height="50" preserveAspectRatio="xMidYMid meet" version="1.2"><defs><clipPath id="7c03e6edb5"><path d="M 7 6 L 29 6 L 29 32.566406 L 7 32.566406 Z M 7 6 "/></clipPath><clipPath id="57fc00cd1b"><path d="M 13 3.699219 L 23 3.699219 L 23 10 L 13 10 Z M 13 3.699219 "/></clipPath><clipPath id="655bf9d00a"><path d="M 1.960938 1.960938 L 35.265625 1.960938 L 35.265625 35.265625 L 1.960938 35.265625 Z M 1.960938 1.960938 "/></clipPath></defs><g id="a636eca91c"><g clip-rule="nonzero" clip-path="url(#7c03e6edb5)"><path style=" stroke:none;fill-rule:evenodd;fill:#ffffff;fill-opacity:1;" d="M 25.875 32.414062 L 10.242188 32.414062 C 8.761719 32.414062 7.535156 31.289062 7.535156 29.894531 L 7.535156 9.179688 C 7.535156 7.804688 8.761719 6.675781 10.242188 6.675781 L 13.890625 6.675781 C 14.105469 6.675781 14.273438 6.84375 14.273438 7.0625 C 14.273438 7.28125 14.105469 7.449219 13.890625 7.449219 L 10.242188 7.449219 C 9.179688 7.449219 8.324219 8.222656 8.324219 9.179688 L 8.324219 29.894531 C 8.324219 30.851562 9.179688 31.625 10.242188 31.625 L 25.875 31.625 C 26.933594 31.625 27.792969 30.851562 27.792969 29.894531 L 27.792969 9.179688 C 27.792969 8.222656 26.933594 7.449219 25.875 7.449219 L 22.226562 7.449219 C 22.007812 7.449219 21.839844 7.28125 21.839844 7.0625 C 21.839844 6.84375 22.007812 6.675781 22.226562 6.675781 L 25.875 6.675781 C 27.355469 6.675781 28.582031 7.804688 28.582031 9.179688 L 28.582031 29.894531 C 28.582031 31.289062 27.355469 32.414062 25.875 32.414062 Z M 25.875 32.414062 "/></g><path style=" stroke:none;fill-rule:evenodd;fill:#ffffff;fill-opacity:1;" d="M 25.875 30.734375 L 10.242188 30.734375 C 9.820312 30.734375 9.214844 30.429688 9.214844 29.894531 L 9.214844 9.179688 C 9.214844 8.644531 9.820312 8.359375 10.242188 8.359375 L 25.875 8.359375 C 26.296875 8.359375 26.902344 8.644531 26.902344 9.179688 L 26.902344 29.894531 C 26.902344 30.429688 26.296875 30.734375 25.875 30.734375 Z M 10.003906 29.859375 C 10.054688 29.894531 10.171875 29.945312 10.242188 29.945312 L 25.875 29.945312 C 25.941406 29.945312 26.058594 29.894531 26.109375 29.859375 L 26.109375 9.214844 C 26.058594 9.179688 25.941406 9.132812 25.875 9.132812 L 10.242188 9.132812 C 10.171875 9.132812 10.054688 9.179688 10.003906 9.214844 Z M 10.003906 29.859375 "/><g clip-rule="nonzero" clip-path="url(#57fc00cd1b)"><path style=" stroke:none;fill-rule:evenodd;fill:#ffffff;fill-opacity:1;" d="M 22.226562 9.132812 L 13.890625 9.132812 C 13.671875 9.132812 13.484375 8.960938 13.484375 8.746094 L 13.484375 5.851562 C 13.484375 5.632812 13.671875 5.449219 13.890625 5.449219 L 16.007812 5.449219 C 16.191406 4.457031 17.050781 3.699219 18.058594 3.699219 C 19.066406 3.699219 19.925781 4.457031 20.109375 5.449219 L 22.226562 5.449219 C 22.445312 5.449219 22.632812 5.632812 22.632812 5.851562 L 22.632812 8.746094 C 22.632812 8.960938 22.445312 9.132812 22.226562 9.132812 Z M 14.273438 8.359375 L 21.839844 8.359375 L 21.839844 6.238281 L 19.738281 6.238281 C 19.539062 6.238281 19.351562 6.070312 19.351562 5.851562 C 19.351562 5.097656 18.765625 4.492188 18.058594 4.492188 C 17.351562 4.492188 16.761719 5.097656 16.761719 5.851562 C 16.761719 6.070312 16.59375 6.238281 16.375 6.238281 L 14.273438 6.238281 Z M 14.273438 8.359375 "/></g><path style=" stroke:none;fill-rule:evenodd;fill:#ffffff;fill-opacity:1;" d="M 17.015625 17.417969 L 11.417969 17.417969 C 11.199219 17.417969 11.03125 17.25 11.03125 17.03125 L 11.03125 11.449219 C 11.03125 11.230469 11.199219 11.046875 11.417969 11.046875 L 17.015625 11.046875 C 17.21875 11.046875 17.402344 11.230469 17.402344 11.449219 L 17.402344 17.03125 C 17.402344 17.25 17.21875 17.417969 17.015625 17.417969 Z M 11.820312 16.644531 L 16.613281 16.644531 L 16.613281 11.835938 L 11.820312 11.835938 Z M 11.820312 16.644531 "/><path style=" stroke:none;fill-rule:evenodd;fill:#ffffff;fill-opacity:1;" d="M 14.15625 14.761719 C 13.484375 14.761719 12.945312 14.226562 12.945312 13.570312 C 12.945312 12.898438 13.484375 12.359375 14.15625 12.359375 C 14.8125 12.359375 15.351562 12.898438 15.351562 13.570312 C 15.351562 14.226562 14.8125 14.761719 14.15625 14.761719 Z M 14.15625 13.148438 C 13.921875 13.148438 13.738281 13.332031 13.738281 13.570312 C 13.738281 13.789062 13.921875 13.988281 14.15625 13.988281 C 14.394531 13.988281 14.578125 13.789062 14.578125 13.570312 C 14.578125 13.332031 14.394531 13.148438 14.15625 13.148438 Z M 14.15625 13.148438 "/><path style=" stroke:none;fill-rule:evenodd;fill:#ffffff;fill-opacity:1;" d="M 15.957031 17.417969 C 15.738281 17.417969 15.570312 17.25 15.570312 17.03125 C 15.570312 16.292969 14.964844 15.6875 14.207031 15.6875 C 13.46875 15.6875 12.863281 16.292969 12.863281 17.03125 C 12.863281 17.25 12.695312 17.417969 12.476562 17.417969 C 12.257812 17.417969 12.074219 17.25 12.074219 17.03125 C 12.074219 15.855469 13.03125 14.898438 14.207031 14.898438 C 15.386719 14.898438 16.34375 15.855469 16.34375 17.03125 C 16.34375 17.25 16.175781 17.417969 15.957031 17.417969 Z M 15.957031 17.417969 "/><path style=" stroke:none;fill-rule:evenodd;fill:#ffffff;fill-opacity:1;" d="M 24.75 22.632812 L 19.992188 22.632812 C 19.773438 22.632812 19.589844 22.445312 19.589844 22.226562 L 19.589844 18.796875 C 19.589844 18.578125 19.773438 18.410156 19.992188 18.410156 L 24.75 18.410156 C 24.96875 18.410156 25.152344 18.578125 25.152344 18.796875 L 25.152344 22.226562 C 25.152344 22.445312 24.96875 22.632812 24.75 22.632812 Z M 20.378906 21.839844 L 24.363281 21.839844 L 24.363281 19.183594 L 20.378906 19.183594 Z M 20.378906 21.839844 "/><path style=" stroke:none;fill-rule:evenodd;fill:#ffffff;fill-opacity:1;" d="M 18.5625 19.503906 L 14.949219 19.503906 C 14.730469 19.503906 14.542969 19.335938 14.542969 19.117188 C 14.542969 18.898438 14.730469 18.714844 14.949219 18.714844 L 18.5625 18.714844 C 18.78125 18.714844 18.949219 18.898438 18.949219 19.117188 C 18.949219 19.335938 18.78125 19.503906 18.5625 19.503906 Z M 18.5625 19.503906 "/><path style=" stroke:none;fill-rule:evenodd;fill:#ffffff;fill-opacity:1;" d="M 18.5625 20.898438 L 11.367188 20.898438 C 11.148438 20.898438 10.964844 20.730469 10.964844 20.511719 C 10.964844 20.292969 11.148438 20.125 11.367188 20.125 L 18.5625 20.125 C 18.78125 20.125 18.949219 20.292969 18.949219 20.511719 C 18.949219 20.730469 18.78125 20.898438 18.5625 20.898438 Z M 18.5625 20.898438 "/><path style=" stroke:none;fill-rule:evenodd;fill:#ffffff;fill-opacity:1;" d="M 18.5625 22.3125 L 11.367188 22.3125 C 11.148438 22.3125 10.964844 22.125 10.964844 21.925781 C 10.964844 21.707031 11.148438 21.519531 11.367188 21.519531 L 18.5625 21.519531 C 18.78125 21.519531 18.949219 21.707031 18.949219 21.925781 C 18.949219 22.125 18.78125 22.3125 18.5625 22.3125 Z M 18.5625 22.3125 "/><path style=" stroke:none;fill-rule:evenodd;fill:#ffffff;fill-opacity:1;" d="M 16.125 28.027344 L 11.367188 28.027344 C 11.148438 28.027344 10.964844 27.84375 10.964844 27.640625 L 10.964844 24.195312 C 10.964844 23.976562 11.148438 23.808594 11.367188 23.808594 L 16.125 23.808594 C 16.34375 23.808594 16.527344 23.976562 16.527344 24.195312 L 16.527344 27.640625 C 16.527344 27.84375 16.34375 28.027344 16.125 28.027344 Z M 11.753906 27.238281 L 15.738281 27.238281 L 15.738281 24.597656 L 11.753906 24.597656 Z M 11.753906 27.238281 "/><path style=" stroke:none;fill-rule:evenodd;fill:#ffffff;fill-opacity:1;" d="M 21.167969 24.902344 L 17.554688 24.902344 C 17.335938 24.902344 17.167969 24.730469 17.167969 24.515625 C 17.167969 24.296875 17.335938 24.128906 17.554688 24.128906 L 21.167969 24.128906 C 21.386719 24.128906 21.570312 24.296875 21.570312 24.515625 C 21.570312 24.730469 21.386719 24.902344 21.167969 24.902344 Z M 21.167969 24.902344 "/><path style=" stroke:none;fill-rule:evenodd;fill:#ffffff;fill-opacity:1;" d="M 24.75 26.3125 L 17.554688 26.3125 C 17.335938 26.3125 17.167969 26.128906 17.167969 25.910156 C 17.167969 25.707031 17.335938 25.523438 17.554688 25.523438 L 24.75 25.523438 C 24.96875 25.523438 25.152344 25.707031 25.152344 25.910156 C 25.152344 26.128906 24.96875 26.3125 24.75 26.3125 Z M 24.75 26.3125 "/><path style=" stroke:none;fill-rule:evenodd;fill:#ffffff;fill-opacity:1;" d="M 24.75 27.707031 L 17.554688 27.707031 C 17.335938 27.707031 17.167969 27.539062 17.167969 27.320312 C 17.167969 27.101562 17.335938 26.933594 17.554688 26.933594 L 24.75 26.933594 C 24.96875 26.933594 25.152344 27.101562 25.152344 27.320312 C 25.152344 27.539062 24.96875 27.707031 24.75 27.707031 Z M 24.75 27.707031 "/><path style=" stroke:none;fill-rule:evenodd;fill:#ffffff;fill-opacity:1;" d="M 22.292969 13.265625 L 18.679688 13.265625 C 18.460938 13.265625 18.277344 13.082031 18.277344 12.863281 C 18.277344 12.660156 18.460938 12.476562 18.679688 12.476562 L 22.292969 12.476562 C 22.511719 12.476562 22.679688 12.660156 22.679688 12.863281 C 22.679688 13.082031 22.511719 13.265625 22.292969 13.265625 Z M 22.292969 13.265625 "/><path style=" stroke:none;fill-rule:evenodd;fill:#ffffff;fill-opacity:1;" d="M 24.195312 14.660156 L 18.679688 14.660156 C 18.460938 14.660156 18.277344 14.492188 18.277344 14.273438 C 18.277344 14.058594 18.460938 13.871094 18.679688 13.871094 L 24.195312 13.871094 C 24.394531 13.871094 24.582031 14.058594 24.582031 14.273438 C 24.582031 14.492188 24.394531 14.660156 24.195312 14.660156 Z M 24.195312 14.660156 "/><path style=" stroke:none;fill-rule:evenodd;fill:#ffffff;fill-opacity:1;" d="M 24.195312 16.058594 L 18.679688 16.058594 C 18.460938 16.058594 18.277344 15.890625 18.277344 15.671875 C 18.277344 15.453125 18.460938 15.285156 18.679688 15.285156 L 24.195312 15.285156 C 24.394531 15.285156 24.582031 15.453125 24.582031 15.671875 C 24.582031 15.890625 24.394531 16.058594 24.195312 16.058594 Z M 24.195312 16.058594 "/><g clip-rule="nonzero" clip-path="url(#655bf9d00a)"><path style=" stroke:none;fill-rule:nonzero;fill:#ffffff;fill-opacity:1;" d="M 3.058594 1.960938 L 3.050781 3.050781 L 1.960938 3.058594 L 1.960938 33.945312 L 3.042969 33.945312 L 3.046875 35.035156 L 33.941406 35.035156 L 33.953125 33.953125 L 35.035156 33.949219 L 35.035156 3.0625 L 33.953125 3.058594 L 33.945312 1.960938 Z M 3.144531 2.046875 L 33.855469 2.046875 L 33.867188 3.144531 L 34.949219 3.148438 L 34.949219 33.859375 L 33.867188 33.867188 L 33.855469 34.949219 L 3.132812 34.949219 L 3.132812 33.859375 L 3.089844 33.859375 L 2.046875 33.855469 L 2.046875 3.144531 L 3.136719 3.136719 Z M 3.144531 2.046875 "/></g><path style=" stroke:none;fill-rule:nonzero;fill:#ffffff;fill-opacity:1;" d="M 2.476562 2.523438 L 2.476562 34.476562 L 34.519531 34.476562 L 34.519531 2.523438 Z M 2.5625 2.609375 L 34.433594 2.609375 L 34.433594 34.386719 L 2.5625 34.386719 Z M 2.5625 2.609375 "/></g></svg>