<svg xmlns="http://www.w3.org/2000/svg" xmlns:xlink="http://www.w3.org/1999/xlink" width="50" zoomAndPan="magnify" viewBox="0 0 37.5 37.499999" height="50" preserveAspectRatio="xMidYMid meet" version="1.2"><defs><clipPath id="f13f6859d3"><path d="M 1.960938 1.960938 L 35.265625 1.960938 L 35.265625 35.265625 L 1.960938 35.265625 Z M 1.960938 1.960938 "/></clipPath><clipPath id="7d0e787dee"><path d="M 4.957031 10.40625 L 27 10.40625 L 27 26 L 4.957031 26 Z M 4.957031 10.40625 "/></clipPath><clipPath id="9af908ceb0"><path d="M 10 27 L 21 27 L 21 28.910156 L 10 28.910156 Z M 10 27 "/></clipPath><clipPath id="24c1fbb434"><path d="M 12 24 L 15 24 L 15 28.910156 L 12 28.910156 Z M 12 24 "/></clipPath><clipPath id="f960e7ca00"><path d="M 17 24 L 19 24 L 19 28.910156 L 17 28.910156 Z M 17 24 "/></clipPath><clipPath id="a16dc0cd10"><path d="M 4.957031 14 L 27 14 L 27 16 L 4.957031 16 Z M 4.957031 14 "/></clipPath><clipPath id="15d05a68aa"><path d="M 22 10.40625 L 33.082031 10.40625 L 33.082031 20 L 22 20 Z M 22 10.40625 "/></clipPath><clipPath id="27fc43f761"><path d="M 23 10.40625 L 33.082031 10.40625 L 33.082031 22 L 23 22 Z M 23 10.40625 "/></clipPath></defs><g id="8a9ec88a7f"><g clip-rule="nonzero" clip-path="url(#f13f6859d3)"><path style=" stroke:none;fill-rule:nonzero;fill:#ffffff;fill-opacity:1;" d="M 3.058594 1.960938 L 3.050781 3.050781 L 1.960938 3.058594 L 1.960938 33.945312 L 3.042969 33.945312 L 3.046875 35.035156 L 33.941406 35.035156 L 33.953125 33.953125 L 35.035156 33.949219 L 35.035156 3.0625 L 33.953125 3.058594 L 33.945312 1.960938 Z M 3.144531 2.046875 L 33.855469 2.046875 L 33.867188 3.144531 L 34.949219 3.148438 L 34.949219 33.859375 L 33.867188 33.867188 L 33.855469 34.949219 L 3.132812 34.949219 L 3.132812 33.859375 L 3.089844 33.859375 L 2.046875 33.855469 L 2.046875 3.144531 L 3.136719 3.136719 Z M 3.144531 2.046875 "/></g><path style=" stroke:none;fill-rule:nonzero;fill:#ffffff;fill-opacity:1;" d="M 2.476562 2.523438 L 2.476562 34.476562 L 34.519531 34.476562 L 34.519531 2.523438 Z M 2.5625 2.609375 L 34.433594 2.609375 L 34.433594 34.386719 L 2.5625 34.386719 Z M 2.5625 2.609375 "/><path style=" stroke:none;fill-rule:nonzero;fill:#ffffff;fill-opacity:1;" d="M 25.875 25.644531 C 25.726562 25.644531 25.597656 25.59375 25.492188 25.488281 C 25.386719 25.382812 25.335938 25.253906 25.335938 25.105469 L 25.335938 19.339844 C 25.335938 19.191406 25.386719 19.0625 25.492188 18.957031 C 25.597656 18.851562 25.726562 18.800781 25.875 18.800781 C 26.023438 18.800781 26.152344 18.851562 26.257812 18.957031 C 26.363281 19.0625 26.414062 19.191406 26.414062 19.339844 L 26.414062 25.105469 C 26.414062 25.253906 26.363281 25.382812 26.257812 25.488281 C 26.152344 25.59375 26.023438 25.644531 25.875 25.644531 Z M 25.875 25.644531 "/><g clip-rule="nonzero" clip-path="url(#7d0e787dee)"><path style=" stroke:none;fill-rule:nonzero;fill:#ffffff;fill-opacity:1;" d="M 25.875 25.972656 L 5.5 25.972656 C 5.347656 25.972656 5.222656 25.921875 5.117188 25.816406 C 5.011719 25.710938 4.957031 25.582031 4.957031 25.433594 L 4.957031 11.003906 C 4.957031 10.855469 5.011719 10.726562 5.117188 10.621094 C 5.222656 10.515625 5.347656 10.464844 5.5 10.464844 L 25.875 10.464844 C 26.023438 10.464844 26.152344 10.515625 26.257812 10.621094 C 26.363281 10.726562 26.414062 10.855469 26.414062 11.003906 L 26.414062 15.898438 C 26.414062 16.046875 26.363281 16.175781 26.257812 16.28125 C 26.152344 16.382812 26.023438 16.4375 25.875 16.4375 C 25.726562 16.4375 25.597656 16.382812 25.492188 16.28125 C 25.386719 16.175781 25.335938 16.046875 25.335938 15.898438 L 25.335938 11.542969 L 6.039062 11.542969 L 6.039062 24.894531 L 25.875 24.894531 C 26.023438 24.894531 26.152344 24.949219 26.257812 25.054688 C 26.363281 25.160156 26.414062 25.285156 26.414062 25.433594 C 26.414062 25.582031 26.363281 25.710938 26.257812 25.816406 C 26.152344 25.921875 26.023438 25.972656 25.875 25.972656 Z M 25.875 25.972656 "/></g><g clip-rule="nonzero" clip-path="url(#9af908ceb0)"><path style=" stroke:none;fill-rule:nonzero;fill:#ffffff;fill-opacity:1;" d="M 20.175781 28.890625 L 11.195312 28.890625 C 11.046875 28.890625 10.921875 28.839844 10.816406 28.734375 C 10.710938 28.628906 10.65625 28.5 10.65625 28.351562 C 10.65625 28.203125 10.710938 28.074219 10.816406 27.96875 C 10.921875 27.863281 11.046875 27.8125 11.195312 27.8125 L 20.175781 27.8125 C 20.324219 27.8125 20.453125 27.863281 20.558594 27.96875 C 20.664062 28.074219 20.714844 28.203125 20.714844 28.351562 C 20.714844 28.5 20.664062 28.628906 20.558594 28.734375 C 20.453125 28.839844 20.324219 28.890625 20.175781 28.890625 Z M 20.175781 28.890625 "/></g><g clip-rule="nonzero" clip-path="url(#24c1fbb434)"><path style=" stroke:none;fill-rule:nonzero;fill:#ffffff;fill-opacity:1;" d="M 13.53125 28.890625 C 13.382812 28.890625 13.257812 28.839844 13.152344 28.734375 C 13.046875 28.628906 12.992188 28.5 12.992188 28.351562 L 12.992188 25.453125 C 12.992188 25.304688 13.046875 25.175781 13.152344 25.070312 C 13.257812 24.964844 13.382812 24.914062 13.53125 24.914062 C 13.683594 24.914062 13.808594 24.964844 13.914062 25.070312 C 14.019531 25.175781 14.074219 25.304688 14.074219 25.453125 L 14.074219 28.351562 C 14.074219 28.5 14.019531 28.628906 13.914062 28.734375 C 13.808594 28.839844 13.683594 28.890625 13.53125 28.890625 Z M 13.53125 28.890625 "/></g><g clip-rule="nonzero" clip-path="url(#f960e7ca00)"><path style=" stroke:none;fill-rule:nonzero;fill:#ffffff;fill-opacity:1;" d="M 17.839844 28.890625 C 17.691406 28.890625 17.566406 28.839844 17.460938 28.734375 C 17.355469 28.628906 17.300781 28.5 17.300781 28.351562 L 17.300781 25.453125 C 17.300781 25.304688 17.355469 25.175781 17.460938 25.070312 C 17.566406 24.964844 17.691406 24.914062 17.839844 24.914062 C 17.988281 24.914062 18.117188 24.964844 18.222656 25.070312 C 18.328125 25.175781 18.378906 25.304688 18.378906 25.453125 L 18.378906 28.351562 C 18.378906 28.5 18.328125 28.628906 18.222656 28.734375 C 18.117188 28.839844 17.988281 28.890625 17.839844 28.890625 Z M 17.839844 28.890625 "/></g><g clip-rule="nonzero" clip-path="url(#a16dc0cd10)"><path style=" stroke:none;fill-rule:nonzero;fill:#ffffff;fill-opacity:1;" d="M 25.875 15.289062 L 5.5 15.289062 C 5.347656 15.289062 5.222656 15.238281 5.117188 15.132812 C 5.011719 15.027344 4.957031 14.898438 4.957031 14.75 C 4.957031 14.601562 5.011719 14.476562 5.117188 14.371094 C 5.222656 14.265625 5.347656 14.210938 5.5 14.210938 L 25.875 14.210938 C 26.023438 14.210938 26.152344 14.265625 26.257812 14.371094 C 26.363281 14.476562 26.414062 14.601562 26.414062 14.75 C 26.414062 14.898438 26.363281 15.027344 26.257812 15.132812 C 26.152344 15.238281 26.023438 15.289062 25.875 15.289062 Z M 25.875 15.289062 "/></g><path style=" stroke:none;fill-rule:nonzero;fill:#ffffff;fill-opacity:1;" d="M 21.351562 13.417969 L 20.175781 13.417969 C 20.027344 13.417969 19.898438 13.363281 19.792969 13.257812 C 19.6875 13.152344 19.636719 13.027344 19.636719 12.878906 C 19.636719 12.726562 19.6875 12.601562 19.792969 12.496094 C 19.898438 12.390625 20.027344 12.335938 20.175781 12.335938 L 21.351562 12.335938 C 21.5 12.335938 21.628906 12.390625 21.734375 12.496094 C 21.839844 12.601562 21.890625 12.726562 21.890625 12.878906 C 21.890625 13.027344 21.839844 13.152344 21.734375 13.257812 C 21.628906 13.363281 21.5 13.417969 21.351562 13.417969 Z M 21.351562 13.417969 "/><path style=" stroke:none;fill-rule:nonzero;fill:#ffffff;fill-opacity:1;" d="M 24.261719 13.417969 L 23.085938 13.417969 C 22.933594 13.417969 22.808594 13.363281 22.703125 13.257812 C 22.597656 13.152344 22.542969 13.027344 22.542969 12.878906 C 22.542969 12.726562 22.597656 12.601562 22.703125 12.496094 C 22.808594 12.390625 22.933594 12.335938 23.085938 12.335938 L 24.261719 12.335938 C 24.410156 12.335938 24.535156 12.390625 24.640625 12.496094 C 24.746094 12.601562 24.800781 12.726562 24.800781 12.878906 C 24.800781 13.027344 24.746094 13.152344 24.640625 13.257812 C 24.535156 13.363281 24.410156 13.417969 24.261719 13.417969 Z M 24.261719 13.417969 "/><path style=" stroke:none;fill-rule:nonzero;fill:#ffffff;fill-opacity:1;" d="M 20.734375 23.296875 C 20.582031 23.296875 20.453125 23.242188 20.347656 23.132812 C 20.242188 23.019531 20.191406 22.886719 20.195312 22.734375 C 20.242188 21.597656 20.511719 19.574219 21.785156 18.824219 C 22.484375 18.410156 23.332031 18.453125 24.308594 18.945312 C 24.414062 19 24.496094 19.078125 24.546875 19.183594 C 25.039062 20.160156 25.082031 21.007812 24.671875 21.707031 C 23.921875 22.980469 21.898438 23.25 20.757812 23.296875 Z M 22.835938 19.625 C 22.65625 19.621094 22.492188 19.664062 22.335938 19.753906 C 21.746094 20.097656 21.4375 21.144531 21.320312 22.171875 C 22.347656 22.058594 23.394531 21.75 23.742188 21.160156 C 23.933594 20.828125 23.910156 20.382812 23.664062 19.832031 C 23.351562 19.695312 23.078125 19.625 22.835938 19.625 Z M 22.835938 19.625 "/><g clip-rule="nonzero" clip-path="url(#15d05a68aa)"><path style=" stroke:none;fill-rule:nonzero;fill:#ffffff;fill-opacity:1;" d="M 22.941406 19.625 C 22.714844 19.625 22.550781 19.523438 22.453125 19.320312 C 22.355469 19.113281 22.378906 18.925781 22.519531 18.75 C 22.570312 18.683594 23.785156 17.1875 25.59375 15.417969 C 28.035156 13.027344 30.277344 11.382812 32.257812 10.523438 C 32.398438 10.464844 32.535156 10.460938 32.675781 10.515625 C 32.816406 10.570312 32.914062 10.664062 32.972656 10.804688 C 33.035156 10.941406 33.035156 11.078125 32.980469 11.21875 C 32.921875 11.359375 32.824219 11.457031 32.6875 11.515625 C 28.226562 13.445312 23.410156 19.367188 23.359375 19.425781 C 23.253906 19.558594 23.113281 19.625 22.941406 19.625 Z M 22.941406 19.625 "/></g><g clip-rule="nonzero" clip-path="url(#27fc43f761)"><path style=" stroke:none;fill-rule:nonzero;fill:#ffffff;fill-opacity:1;" d="M 24.410156 21.175781 C 24.15625 21.175781 23.988281 21.058594 23.902344 20.820312 C 23.816406 20.582031 23.871094 20.378906 24.066406 20.21875 C 24.125 20.171875 30.050781 15.261719 31.976562 10.804688 C 32.039062 10.667969 32.136719 10.574219 32.273438 10.519531 C 32.414062 10.464844 32.550781 10.464844 32.6875 10.523438 C 32.824219 10.582031 32.921875 10.683594 32.976562 10.820312 C 33.03125 10.960938 33.027344 11.097656 32.96875 11.234375 C 32.113281 13.214844 30.464844 15.472656 28.078125 17.941406 C 26.3125 19.765625 24.816406 21 24.75 21.054688 C 24.652344 21.136719 24.539062 21.175781 24.410156 21.175781 Z M 24.410156 21.175781 "/></g></g></svg>