<svg xmlns="http://www.w3.org/2000/svg" xmlns:xlink="http://www.w3.org/1999/xlink" width="50" zoomAndPan="magnify" viewBox="0 0 37.5 37.499999" height="50" preserveAspectRatio="xMidYMid meet" version="1.2"><defs><clipPath id="b77a30b211"><path d="M 1.960938 1.960938 L 35.265625 1.960938 L 35.265625 35.265625 L 1.960938 35.265625 Z M 1.960938 1.960938 "/></clipPath><clipPath id="19b00fe6a9"><path d="M 4.957031 22 L 14 22 L 14 33.289062 L 4.957031 33.289062 Z M 4.957031 22 "/></clipPath><clipPath id="346d366da6"><path d="M 21 5.902344 L 30.863281 5.902344 L 30.863281 16 L 21 16 Z M 21 5.902344 "/></clipPath></defs><g id="9d85780379"><g clip-rule="nonzero" clip-path="url(#b77a30b211)"><path style=" stroke:none;fill-rule:nonzero;fill:#ffffff;fill-opacity:1;" d="M 3.058594 1.960938 L 3.050781 3.050781 L 1.960938 3.058594 L 1.960938 33.945312 L 3.042969 33.945312 L 3.046875 35.035156 L 33.941406 35.035156 L 33.953125 33.953125 L 35.035156 33.949219 L 35.035156 3.0625 L 33.953125 3.058594 L 33.945312 1.960938 Z M 3.144531 2.046875 L 33.855469 2.046875 L 33.867188 3.144531 L 34.949219 3.148438 L 34.949219 33.859375 L 33.867188 33.867188 L 33.855469 34.949219 L 3.132812 34.949219 L 3.132812 33.859375 L 3.089844 33.859375 L 2.046875 33.855469 L 2.046875 3.144531 L 3.136719 3.136719 Z M 3.144531 2.046875 "/></g><path style=" stroke:none;fill-rule:nonzero;fill:#ffffff;fill-opacity:1;" d="M 2.476562 2.523438 L 2.476562 34.476562 L 34.519531 34.476562 L 34.519531 2.523438 Z M 2.5625 2.609375 L 34.433594 2.609375 L 34.433594 34.386719 L 2.5625 34.386719 Z M 2.5625 2.609375 "/><path style=" stroke:none;fill-rule:evenodd;fill:#ffffff;fill-opacity:1;" d="M 12.089844 30.367188 C 11.957031 30.367188 11.824219 30.308594 11.742188 30.1875 C 11.609375 29.996094 11.652344 29.730469 11.847656 29.59375 C 12.460938 29.15625 13.027344 28.890625 13.578125 28.769531 C 14.066406 28.667969 14.550781 28.671875 15.101562 28.800781 C 17.269531 29.296875 18.800781 28.949219 20.027344 28.671875 C 20.105469 28.652344 20.1875 28.636719 20.261719 28.621094 C 21.140625 28.429688 22.976562 27.558594 24.625 26.554688 C 26.816406 25.226562 27.722656 24.28125 27.828125 23.875 C 27.863281 23.726562 27.914062 23.457031 27.789062 23.339844 C 27.640625 23.199219 27.15625 23.132812 26.316406 23.414062 C 26.265625 23.4375 26.089844 23.539062 25.910156 23.636719 C 25.195312 24.046875 23.71875 24.882812 22.007812 25.53125 C 20.480469 26.109375 19.097656 26.398438 17.886719 26.398438 C 17.410156 26.398438 16.957031 26.355469 16.535156 26.265625 C 16.316406 26.222656 16.175781 26.019531 16.199219 25.804688 C 16.222656 25.589844 16.40625 25.425781 16.621094 25.425781 C 16.628906 25.425781 16.636719 25.425781 16.644531 25.425781 C 16.933594 25.425781 17.226562 25.414062 17.492188 25.390625 C 17.492188 25.390625 17.5 25.390625 17.5 25.390625 C 19.179688 25.226562 20.03125 24.59375 20.277344 24.066406 C 20.351562 23.898438 20.410156 23.644531 20.242188 23.414062 C 20.003906 23.078125 19.421875 22.921875 18.703125 22.996094 C 18.539062 23.011719 18.382812 23.019531 18.21875 23.019531 C 17.082031 23.019531 16.117188 22.617188 15.324219 22.285156 C 14.726562 22.03125 14.214844 21.824219 13.777344 21.824219 C 12.753906 21.824219 11.980469 22.535156 11.089844 23.363281 C 10.417969 23.984375 9.722656 24.632812 8.816406 25.070312 C 8.597656 25.175781 8.347656 25.085938 8.242188 24.871094 C 8.136719 24.65625 8.226562 24.402344 8.441406 24.296875 C 9.230469 23.910156 9.878906 23.316406 10.507812 22.730469 C 10.992188 22.285156 11.445312 21.859375 11.957031 21.535156 C 12.558594 21.148438 13.152344 20.960938 13.777344 20.960938 C 14.386719 20.960938 15.003906 21.222656 15.648438 21.488281 C 16.503906 21.847656 17.476562 22.253906 18.605469 22.144531 C 19.652344 22.039062 20.5 22.3125 20.925781 22.910156 C 21.238281 23.347656 21.28125 23.890625 21.042969 24.417969 C 20.925781 24.675781 20.738281 24.921875 20.5 25.144531 C 22.625 24.535156 24.601562 23.40625 25.472656 22.914062 C 25.8125 22.722656 25.925781 22.65625 26.019531 22.625 C 27.089844 22.261719 27.902344 22.308594 28.363281 22.738281 C 28.554688 22.921875 28.851562 23.339844 28.644531 24.121094 C 28.523438 24.566406 28.109375 25.085938 27.367188 25.710938 C 26.773438 26.207031 25.976562 26.757812 25.054688 27.3125 C 23.308594 28.367188 21.40625 29.261719 20.433594 29.484375 C 20.351562 29.5 20.277344 29.519531 20.195312 29.535156 C 18.882812 29.832031 17.246094 30.203125 14.882812 29.660156 C 14.140625 29.492188 13.421875 29.535156 12.3125 30.324219 C 12.261719 30.339844 12.171875 30.367188 12.089844 30.367188 Z M 26.316406 23.40625 Z M 26.316406 23.40625 "/><g clip-rule="nonzero" clip-path="url(#19b00fe6a9)"><path style=" stroke:none;fill-rule:evenodd;fill:#ffffff;fill-opacity:1;" d="M 10.65625 33.289062 C 10.515625 33.289062 10.382812 33.21875 10.300781 33.09375 L 5.046875 25.019531 C 4.988281 24.921875 4.964844 24.808594 4.988281 24.699219 C 5.011719 24.585938 5.078125 24.492188 5.175781 24.429688 L 7.515625 22.910156 C 7.714844 22.78125 7.976562 22.835938 8.109375 23.035156 L 13.363281 31.101562 C 13.421875 31.199219 13.441406 31.3125 13.421875 31.421875 C 13.398438 31.535156 13.332031 31.628906 13.234375 31.691406 L 10.894531 33.214844 C 10.820312 33.265625 10.738281 33.289062 10.65625 33.289062 Z M 6 24.90625 L 10.785156 32.261719 L 12.402344 31.207031 L 7.617188 23.851562 Z M 6 24.90625 "/></g><path style=" stroke:none;fill-rule:evenodd;fill:#ffffff;fill-opacity:1;" d="M 11.332031 22.976562 C 11.09375 22.976562 10.902344 22.78125 10.902344 22.542969 L 10.902344 11.824219 C 10.902344 11.394531 11.25 11.042969 11.683594 11.042969 L 21.785156 11.042969 C 22.023438 11.042969 22.21875 11.238281 22.21875 11.476562 C 22.21875 11.710938 22.023438 11.90625 21.785156 11.90625 L 11.757812 11.90625 L 11.757812 22.550781 C 11.757812 22.78125 11.570312 22.976562 11.332031 22.976562 Z M 11.332031 22.976562 "/><path style=" stroke:none;fill-rule:evenodd;fill:#ffffff;fill-opacity:1;" d="M 24.765625 24.207031 C 24.527344 24.207031 24.335938 24.015625 24.335938 23.777344 L 24.335938 14.617188 C 24.335938 14.378906 24.527344 14.1875 24.765625 14.1875 C 25.003906 14.1875 25.195312 14.378906 25.195312 14.617188 L 25.195312 23.777344 C 25.195312 24.015625 25.003906 24.207031 24.765625 24.207031 Z M 24.765625 24.207031 "/><path style=" stroke:none;fill-rule:evenodd;fill:#ffffff;fill-opacity:1;" d="M 20.21875 16.238281 C 20.128906 16.238281 20.039062 16.207031 19.964844 16.15625 L 18.050781 14.742188 L 16.132812 16.15625 C 16 16.25 15.828125 16.265625 15.6875 16.191406 C 15.546875 16.117188 15.449219 15.96875 15.449219 15.8125 L 15.449219 11.476562 C 15.449219 11.238281 15.640625 11.042969 15.878906 11.042969 C 16.117188 11.042969 16.3125 11.238281 16.3125 11.476562 L 16.3125 14.964844 L 17.796875 13.867188 C 17.945312 13.753906 18.152344 13.753906 18.300781 13.867188 L 19.789062 14.964844 L 19.789062 11.476562 C 19.789062 11.238281 19.980469 11.042969 20.21875 11.042969 C 20.457031 11.042969 20.648438 11.238281 20.648438 11.476562 L 20.648438 15.8125 C 20.648438 15.976562 20.558594 16.125 20.410156 16.191406 C 20.351562 16.222656 20.285156 16.238281 20.21875 16.238281 Z M 20.21875 16.238281 "/><path style=" stroke:none;fill-rule:evenodd;fill:#ffffff;fill-opacity:1;" d="M 20.21875 19.089844 L 15.878906 19.089844 C 15.640625 19.089844 15.449219 18.898438 15.449219 18.660156 C 15.449219 18.421875 15.640625 18.226562 15.878906 18.226562 L 20.21875 18.226562 C 20.457031 18.226562 20.648438 18.421875 20.648438 18.660156 C 20.648438 18.898438 20.457031 19.089844 20.21875 19.089844 Z M 20.21875 19.089844 "/><path style=" stroke:none;fill-rule:evenodd;fill:#ffffff;fill-opacity:1;" d="M 19.238281 20.886719 L 16.859375 20.886719 C 16.621094 20.886719 16.429688 20.695312 16.429688 20.457031 C 16.429688 20.21875 16.621094 20.027344 16.859375 20.027344 L 19.238281 20.027344 C 19.476562 20.027344 19.667969 20.21875 19.667969 20.457031 C 19.667969 20.695312 19.476562 20.886719 19.238281 20.886719 Z M 19.238281 20.886719 "/><g clip-rule="nonzero" clip-path="url(#346d366da6)"><path style=" stroke:none;fill-rule:evenodd;fill:#ffffff;fill-opacity:1;" d="M 25.910156 15.203125 C 24.667969 15.203125 23.496094 14.722656 22.617188 13.84375 C 21.742188 12.96875 21.257812 11.792969 21.257812 10.554688 C 21.257812 9.3125 21.742188 8.140625 22.617188 7.261719 C 23.496094 6.386719 24.667969 5.902344 25.910156 5.902344 C 27.148438 5.902344 28.324219 6.386719 29.199219 7.261719 C 30.078125 8.140625 30.558594 9.3125 30.558594 10.554688 C 30.558594 11.792969 30.078125 12.96875 29.199219 13.84375 C 28.324219 14.722656 27.152344 15.203125 25.910156 15.203125 Z M 25.910156 6.75 C 23.816406 6.75 22.113281 8.449219 22.113281 10.546875 C 22.113281 12.640625 23.816406 14.34375 25.910156 14.34375 C 28.003906 14.34375 29.707031 12.640625 29.707031 10.546875 C 29.707031 8.449219 28.003906 6.75 25.910156 6.75 Z M 25.910156 6.75 "/></g><path style=" stroke:none;fill-rule:evenodd;fill:#ffffff;fill-opacity:1;" d="M 25.351562 11.824219 C 25.234375 11.824219 25.113281 11.773438 25.027344 11.675781 L 24.125 10.621094 C 23.96875 10.441406 23.992188 10.167969 24.171875 10.019531 C 24.347656 9.871094 24.625 9.882812 24.773438 10.0625 L 25.398438 10.792969 L 27.082031 9.378906 C 27.261719 9.230469 27.535156 9.253906 27.683594 9.429688 C 27.832031 9.609375 27.8125 9.882812 27.632812 10.035156 L 25.628906 11.71875 C 25.546875 11.785156 25.449219 11.824219 25.351562 11.824219 Z M 25.351562 11.824219 "/></g></svg>