<svg xmlns="http://www.w3.org/2000/svg" xmlns:xlink="http://www.w3.org/1999/xlink" width="40" zoomAndPan="magnify" viewBox="0 0 30 30.000001" height="40" preserveAspectRatio="xMidYMid meet" version="1.2"><defs><clipPath id="88b8c14621"><path d="M 0.484375 0 L 29.515625 0 L 29.515625 29.03125 L 0.484375 29.03125 Z M 0.484375 0 "/></clipPath><clipPath id="7e64383901"><path d="M 3.128906 4.171875 L 27 4.171875 L 27 25 L 3.128906 25 Z M 3.128906 4.171875 "/></clipPath><clipPath id="c7f29cd5f3"><path d="M 9.554688 6.097656 L 21.167969 6.097656 L 21.167969 17.710938 L 9.554688 17.710938 Z M 9.554688 6.097656 "/></clipPath></defs><g id="6700339b90"><g clip-rule="nonzero" clip-path="url(#88b8c14621)"><path style=" stroke:none;fill-rule:nonzero;fill:#ffffff;fill-opacity:1;" d="M 0.484375 0 L 29.515625 0 L 29.515625 29.03125 L 0.484375 29.03125 Z M 0.484375 0 "/><path style=" stroke:none;fill-rule:nonzero;fill:#ffffff;fill-opacity:1;" d="M 0.484375 0 L 29.515625 0 L 29.515625 29.03125 L 0.484375 29.03125 Z M 0.484375 0 "/></g><g clip-rule="nonzero" clip-path="url(#7e64383901)"><path style=" stroke:none;fill-rule:nonzero;fill:#5e17eb;fill-opacity:1;" d="M 25.523438 4.179688 L 4.46875 4.179688 C 4.289062 4.179688 4.121094 4.210938 3.957031 4.28125 C 3.792969 4.347656 3.644531 4.445312 3.519531 4.570312 C 3.394531 4.695312 3.296875 4.84375 3.230469 5.007812 C 3.164062 5.171875 3.128906 5.339844 3.128906 5.519531 L 3.128906 19.683594 C 3.128906 19.859375 3.164062 20.03125 3.230469 20.195312 C 3.296875 20.359375 3.394531 20.503906 3.519531 20.628906 C 3.644531 20.757812 3.792969 20.851562 3.957031 20.921875 C 4.121094 20.988281 4.289062 21.023438 4.46875 21.023438 L 11.492188 21.023438 L 11.21875 22.9375 L 8.871094 22.9375 C 8.765625 22.9375 8.675781 22.976562 8.601562 23.050781 C 8.523438 23.125 8.488281 23.214844 8.488281 23.320312 L 8.488281 24.46875 C 8.488281 24.574219 8.523438 24.664062 8.601562 24.738281 C 8.675781 24.816406 8.765625 24.851562 8.871094 24.851562 L 21.121094 24.851562 C 21.226562 24.851562 21.316406 24.816406 21.390625 24.738281 C 21.46875 24.664062 21.503906 24.574219 21.503906 24.46875 L 21.503906 23.320312 C 21.503906 23.214844 21.46875 23.125 21.390625 23.050781 C 21.316406 22.976562 21.226562 22.9375 21.121094 22.9375 L 18.773438 22.9375 L 18.5 21.023438 L 25.523438 21.023438 C 25.703125 21.023438 25.871094 20.988281 26.035156 20.921875 C 26.199219 20.851562 26.34375 20.757812 26.472656 20.628906 C 26.597656 20.503906 26.695312 20.359375 26.761719 20.195312 C 26.828125 20.03125 26.863281 19.859375 26.863281 19.683594 L 26.863281 5.519531 C 26.863281 5.339844 26.828125 5.171875 26.761719 5.007812 C 26.695312 4.84375 26.597656 4.695312 26.472656 4.570312 C 26.34375 4.445312 26.199219 4.347656 26.035156 4.28125 C 25.871094 4.210938 25.703125 4.179688 25.523438 4.179688 Z M 20.738281 23.703125 L 20.738281 24.085938 L 9.253906 24.085938 L 9.253906 23.703125 Z M 11.992188 22.9375 L 12.265625 21.023438 L 17.726562 21.023438 L 18 22.9375 Z M 26.097656 19.683594 C 26.097656 19.84375 26.042969 19.976562 25.929688 20.089844 C 25.816406 20.203125 25.683594 20.257812 25.523438 20.257812 L 4.46875 20.257812 C 4.308594 20.257812 4.175781 20.203125 4.0625 20.089844 C 3.949219 19.976562 3.894531 19.84375 3.894531 19.683594 L 3.894531 18.726562 L 26.097656 18.726562 Z M 26.097656 17.960938 L 3.894531 17.960938 L 3.894531 5.519531 C 3.894531 5.359375 3.949219 5.226562 4.0625 5.113281 C 4.175781 5 4.308594 4.945312 4.46875 4.945312 L 25.523438 4.945312 C 25.683594 4.945312 25.816406 5 25.929688 5.113281 C 26.042969 5.226562 26.097656 5.359375 26.097656 5.519531 Z M 26.097656 17.960938 "/></g><path style=" stroke:none;fill-rule:nonzero;fill:#5e17eb;fill-opacity:1;" d="M 16.144531 19.109375 L 13.847656 19.109375 C 13.742188 19.109375 13.652344 19.148438 13.578125 19.222656 C 13.5 19.296875 13.464844 19.386719 13.464844 19.492188 C 13.464844 19.597656 13.5 19.6875 13.578125 19.761719 C 13.652344 19.835938 13.742188 19.875 13.847656 19.875 L 16.144531 19.875 C 16.25 19.875 16.339844 19.835938 16.414062 19.761719 C 16.488281 19.6875 16.527344 19.597656 16.527344 19.492188 C 16.527344 19.386719 16.488281 19.296875 16.414062 19.222656 C 16.339844 19.148438 16.25 19.109375 16.144531 19.109375 Z M 16.144531 19.109375 "/><g clip-rule="nonzero" clip-path="url(#c7f29cd5f3)"><path style=" stroke:none;fill-rule:evenodd;fill:#5e17eb;fill-opacity:1;" d="M 12.601562 15.5 L 13.347656 15.5 C 13.441406 15.5 13.515625 15.578125 13.515625 15.671875 L 13.515625 17.414062 C 13.515625 17.503906 13.441406 17.582031 13.347656 17.582031 L 12.601562 17.582031 C 12.507812 17.582031 12.429688 17.503906 12.429688 17.414062 L 12.429688 15.671875 C 12.429688 15.578125 12.507812 15.5 12.601562 15.5 Z M 19.785156 7.234375 C 20.550781 7.234375 21.167969 7.855469 21.167969 8.621094 C 21.167969 9.386719 20.550781 10.007812 19.785156 10.007812 C 19.019531 10.007812 18.398438 9.386719 18.398438 8.621094 C 18.398438 7.855469 19.019531 7.234375 19.785156 7.234375 Z M 20.371094 8.125 C 20.289062 7.9375 20.140625 7.824219 19.976562 7.773438 L 19.976562 7.746094 C 19.976562 7.636719 19.890625 7.550781 19.785156 7.550781 C 19.675781 7.550781 19.589844 7.636719 19.589844 7.746094 L 19.589844 7.777344 C 19.351562 7.847656 19.179688 8.046875 19.191406 8.304688 C 19.207031 8.621094 19.472656 8.761719 19.753906 8.808594 C 19.84375 8.820312 20.019531 8.855469 20.035156 8.96875 L 20.035156 8.980469 C 20.039062 9.066406 19.90625 9.097656 19.839844 9.105469 C 19.824219 9.109375 19.808594 9.109375 19.796875 9.109375 C 19.6875 9.113281 19.554688 9.066406 19.527344 8.949219 C 19.5 8.84375 19.394531 8.78125 19.292969 8.804688 C 19.1875 8.832031 19.125 8.9375 19.152344 9.039062 C 19.207031 9.261719 19.375 9.410156 19.589844 9.46875 L 19.589844 9.5 C 19.589844 9.605469 19.675781 9.691406 19.785156 9.691406 C 19.890625 9.691406 19.976562 9.605469 19.976562 9.5 L 19.976562 9.472656 C 20.222656 9.414062 20.425781 9.246094 20.421875 8.972656 C 20.421875 8.953125 20.417969 8.9375 20.417969 8.921875 C 20.378906 8.597656 20.101562 8.472656 19.816406 8.425781 C 19.742188 8.414062 19.582031 8.382812 19.578125 8.285156 C 19.574219 8.199219 19.652344 8.152344 19.726562 8.140625 C 19.84375 8.117188 19.964844 8.160156 20.011719 8.273438 C 20.054688 8.375 20.167969 8.421875 20.265625 8.378906 C 20.363281 8.335938 20.410156 8.222656 20.371094 8.125 Z M 14.519531 6.101562 C 14.796875 6.101562 15.023438 6.328125 15.023438 6.605469 C 15.023438 6.882812 14.796875 7.109375 14.519531 7.109375 C 14.242188 7.109375 14.015625 6.882812 14.015625 6.605469 C 14.015625 6.328125 14.242188 6.101562 14.519531 6.101562 Z M 13.671875 8.242188 L 15.367188 8.242188 C 15.445312 8.242188 15.503906 8.167969 15.484375 8.089844 C 15.371094 7.664062 14.980469 7.351562 14.519531 7.351562 C 14.058594 7.351562 13.667969 7.664062 13.554688 8.089844 C 13.535156 8.167969 13.59375 8.242188 13.671875 8.242188 Z M 12.535156 6.101562 C 12.253906 6.101562 12.03125 6.328125 12.03125 6.605469 C 12.03125 6.882812 12.253906 7.109375 12.535156 7.109375 C 12.8125 7.109375 13.039062 6.882812 13.039062 6.605469 C 13.039062 6.328125 12.8125 6.101562 12.535156 6.101562 Z M 13.382812 8.242188 L 11.6875 8.242188 C 11.605469 8.242188 11.550781 8.167969 11.570312 8.089844 C 11.683594 7.664062 12.074219 7.351562 12.535156 7.351562 C 12.996094 7.351562 13.382812 7.664062 13.5 8.089844 C 13.519531 8.167969 13.460938 8.242188 13.382812 8.242188 Z M 10.550781 6.101562 C 10.828125 6.101562 11.054688 6.328125 11.054688 6.605469 C 11.054688 6.882812 10.828125 7.109375 10.550781 7.109375 C 10.269531 7.109375 10.042969 6.882812 10.042969 6.605469 C 10.042969 6.328125 10.269531 6.101562 10.550781 6.101562 Z M 9.703125 8.242188 L 11.394531 8.242188 C 11.476562 8.242188 11.535156 8.167969 11.511719 8.089844 C 11.398438 7.664062 11.011719 7.351562 10.550781 7.351562 C 10.085938 7.351562 9.699219 7.664062 9.585938 8.089844 C 9.5625 8.167969 9.621094 8.242188 9.703125 8.242188 Z M 9.644531 8.726562 L 15.421875 8.726562 C 15.472656 8.726562 15.511719 8.765625 15.511719 8.816406 L 15.511719 9.285156 C 15.511719 9.335938 15.472656 9.375 15.421875 9.375 L 9.644531 9.375 C 9.597656 9.375 9.554688 9.335938 9.554688 9.285156 L 9.554688 8.816406 C 9.554688 8.765625 9.597656 8.726562 9.644531 8.726562 Z M 13.316406 11.257812 L 14.832031 9.761719 L 10.234375 9.761719 L 11.75 11.257812 Z M 11.945312 11.644531 L 11.945312 12.898438 L 13.121094 12.402344 L 13.121094 11.644531 Z M 13.089844 13.554688 C 13.003906 13.621094 12.882812 13.605469 12.820312 13.519531 C 12.753906 13.433594 12.773438 13.3125 12.855469 13.25 L 15.167969 11.496094 C 15.222656 11.453125 15.296875 11.445312 15.359375 11.472656 L 17.554688 12.414062 L 19.1875 10.929688 L 18.824219 10.933594 C 18.71875 10.933594 18.632812 10.847656 18.632812 10.738281 C 18.632812 10.632812 18.71875 10.546875 18.824219 10.546875 L 19.6875 10.542969 C 19.808594 10.542969 19.898438 10.65625 19.875 10.773438 L 19.710938 11.621094 C 19.6875 11.726562 19.585938 11.792969 19.480469 11.773438 C 19.378906 11.753906 19.308594 11.652344 19.328125 11.546875 L 19.382812 11.273438 L 17.730469 12.777344 C 17.675781 12.832031 17.589844 12.851562 17.515625 12.820312 L 15.308594 11.871094 Z M 19.527344 12.25 C 19.433594 12.25 19.359375 12.328125 19.359375 12.417969 L 19.359375 17.414062 C 19.359375 17.503906 19.433594 17.582031 19.527344 17.582031 L 20.273438 17.582031 C 20.367188 17.582031 20.445312 17.503906 20.445312 17.414062 L 20.445312 12.417969 C 20.445312 12.328125 20.367188 12.25 20.273438 12.25 Z M 17.21875 14.410156 C 17.46875 14.410156 17.714844 14.410156 17.964844 14.410156 C 18.058594 14.410156 18.132812 14.488281 18.132812 14.582031 C 18.132812 15.582031 18.132812 16.410156 18.132812 17.414062 C 18.132812 17.503906 18.058594 17.582031 17.964844 17.582031 C 17.714844 17.582031 17.46875 17.582031 17.21875 17.582031 C 17.125 17.582031 17.050781 17.503906 17.050781 17.414062 C 17.050781 16.410156 17.050781 15.582031 17.050781 14.582031 C 17.050781 14.488281 17.125 14.410156 17.21875 14.410156 Z M 14.910156 13.671875 L 15.65625 13.671875 C 15.75 13.671875 15.824219 13.75 15.824219 13.839844 L 15.824219 17.414062 C 15.824219 17.503906 15.75 17.582031 15.65625 17.582031 L 14.910156 17.582031 C 14.816406 17.582031 14.742188 17.503906 14.742188 17.414062 L 14.742188 13.839844 C 14.742188 13.75 14.816406 13.671875 14.910156 13.671875 Z M 14.910156 13.671875 "/></g></g></svg>