<svg xmlns="http://www.w3.org/2000/svg" xmlns:xlink="http://www.w3.org/1999/xlink" width="40" zoomAndPan="magnify" viewBox="0 0 30 30.000001" height="40" preserveAspectRatio="xMidYMid meet" version="1.2"><defs><clipPath id="7059d6fde1"><path d="M 0.484375 0 L 29.515625 0 L 29.515625 29.03125 L 0.484375 29.03125 Z M 0.484375 0 "/></clipPath><clipPath id="eb588d5fee"><path d="M 3.128906 4.171875 L 27 4.171875 L 27 25 L 3.128906 25 Z M 3.128906 4.171875 "/></clipPath><clipPath id="6141c6cbe5"><path d="M 9.8125 6.449219 L 19.972656 6.449219 L 19.972656 16.609375 L 9.8125 16.609375 Z M 9.8125 6.449219 "/></clipPath><clipPath id="069d794543"><path d="M 9.8125 8 L 19.972656 8 L 19.972656 9 L 9.8125 9 Z M 9.8125 8 "/></clipPath><clipPath id="8c5576c319"><path d="M 13 6.449219 L 16 6.449219 L 16 9 L 13 9 Z M 13 6.449219 "/></clipPath><clipPath id="571c26238f"><path d="M 15 7 L 19.972656 7 L 19.972656 8 L 15 8 Z M 15 7 "/></clipPath></defs><g id="57bb04ec32"><g clip-rule="nonzero" clip-path="url(#7059d6fde1)"><path style=" stroke:none;fill-rule:nonzero;fill:#ffffff;fill-opacity:1;" d="M 0.484375 0 L 29.515625 0 L 29.515625 29.03125 L 0.484375 29.03125 Z M 0.484375 0 "/><path style=" stroke:none;fill-rule:nonzero;fill:#ffffff;fill-opacity:1;" d="M 0.484375 0 L 29.515625 0 L 29.515625 29.03125 L 0.484375 29.03125 Z M 0.484375 0 "/></g><g clip-rule="nonzero" clip-path="url(#eb588d5fee)"><path style=" stroke:none;fill-rule:nonzero;fill:#5e17eb;fill-opacity:1;" d="M 25.523438 4.179688 L 4.46875 4.179688 C 4.289062 4.179688 4.121094 4.210938 3.957031 4.28125 C 3.792969 4.347656 3.644531 4.445312 3.519531 4.570312 C 3.394531 4.695312 3.296875 4.84375 3.230469 5.007812 C 3.164062 5.171875 3.128906 5.339844 3.128906 5.519531 L 3.128906 19.683594 C 3.128906 19.859375 3.164062 20.03125 3.230469 20.195312 C 3.296875 20.359375 3.394531 20.503906 3.519531 20.628906 C 3.644531 20.757812 3.792969 20.851562 3.957031 20.921875 C 4.121094 20.988281 4.289062 21.023438 4.46875 21.023438 L 11.492188 21.023438 L 11.21875 22.9375 L 8.871094 22.9375 C 8.765625 22.9375 8.675781 22.976562 8.601562 23.050781 C 8.523438 23.125 8.488281 23.214844 8.488281 23.320312 L 8.488281 24.46875 C 8.488281 24.574219 8.523438 24.664062 8.601562 24.738281 C 8.675781 24.816406 8.765625 24.851562 8.871094 24.851562 L 21.121094 24.851562 C 21.226562 24.851562 21.316406 24.816406 21.390625 24.738281 C 21.46875 24.664062 21.503906 24.574219 21.503906 24.46875 L 21.503906 23.320312 C 21.503906 23.214844 21.46875 23.125 21.390625 23.050781 C 21.316406 22.976562 21.226562 22.9375 21.121094 22.9375 L 18.773438 22.9375 L 18.5 21.023438 L 25.523438 21.023438 C 25.703125 21.023438 25.871094 20.988281 26.035156 20.921875 C 26.199219 20.851562 26.34375 20.757812 26.472656 20.628906 C 26.597656 20.503906 26.695312 20.359375 26.761719 20.195312 C 26.828125 20.03125 26.863281 19.859375 26.863281 19.683594 L 26.863281 5.519531 C 26.863281 5.339844 26.828125 5.171875 26.761719 5.007812 C 26.695312 4.84375 26.597656 4.695312 26.472656 4.570312 C 26.34375 4.445312 26.199219 4.347656 26.035156 4.28125 C 25.871094 4.210938 25.703125 4.179688 25.523438 4.179688 Z M 20.738281 23.703125 L 20.738281 24.085938 L 9.253906 24.085938 L 9.253906 23.703125 Z M 11.992188 22.9375 L 12.265625 21.023438 L 17.726562 21.023438 L 18 22.9375 Z M 26.097656 19.683594 C 26.097656 19.84375 26.042969 19.976562 25.929688 20.089844 C 25.816406 20.203125 25.683594 20.257812 25.523438 20.257812 L 4.46875 20.257812 C 4.308594 20.257812 4.175781 20.203125 4.0625 20.089844 C 3.949219 19.976562 3.894531 19.84375 3.894531 19.683594 L 3.894531 18.726562 L 26.097656 18.726562 Z M 26.097656 17.960938 L 3.894531 17.960938 L 3.894531 5.519531 C 3.894531 5.359375 3.949219 5.226562 4.0625 5.113281 C 4.175781 5 4.308594 4.945312 4.46875 4.945312 L 25.523438 4.945312 C 25.683594 4.945312 25.816406 5 25.929688 5.113281 C 26.042969 5.226562 26.097656 5.359375 26.097656 5.519531 Z M 26.097656 17.960938 "/></g><path style=" stroke:none;fill-rule:nonzero;fill:#5e17eb;fill-opacity:1;" d="M 16.144531 19.109375 L 13.847656 19.109375 C 13.742188 19.109375 13.652344 19.148438 13.578125 19.222656 C 13.5 19.296875 13.464844 19.386719 13.464844 19.492188 C 13.464844 19.597656 13.5 19.6875 13.578125 19.761719 C 13.652344 19.835938 13.742188 19.875 13.847656 19.875 L 16.144531 19.875 C 16.25 19.875 16.339844 19.835938 16.414062 19.761719 C 16.488281 19.6875 16.527344 19.597656 16.527344 19.492188 C 16.527344 19.386719 16.488281 19.296875 16.414062 19.222656 C 16.339844 19.148438 16.25 19.109375 16.144531 19.109375 Z M 16.144531 19.109375 "/><g clip-rule="nonzero" clip-path="url(#6141c6cbe5)"><path style=" stroke:none;fill-rule:evenodd;fill:#5e17eb;fill-opacity:1;" d="M 19.195312 16.5 L 10.59375 16.5 C 10.179688 16.5 9.847656 16.164062 9.847656 15.753906 L 9.847656 7.273438 C 9.847656 6.859375 10.179688 6.527344 10.59375 6.527344 L 19.195312 6.527344 C 19.601562 6.527344 19.9375 6.859375 19.9375 7.273438 L 19.9375 15.753906 C 19.9375 16.164062 19.601562 16.5 19.195312 16.5 Z M 10.59375 6.761719 C 10.316406 6.761719 10.085938 6.988281 10.085938 7.273438 L 10.085938 15.753906 C 10.085938 16.03125 10.316406 16.261719 10.59375 16.261719 L 19.195312 16.261719 C 19.472656 16.261719 19.703125 16.03125 19.703125 15.753906 L 19.703125 7.273438 C 19.703125 6.988281 19.472656 6.761719 19.195312 6.761719 Z M 10.59375 6.761719 "/></g><g clip-rule="nonzero" clip-path="url(#069d794543)"><path style=" stroke:none;fill-rule:evenodd;fill:#5e17eb;fill-opacity:1;" d="M 19.820312 8.488281 L 9.964844 8.488281 C 9.8125 8.488281 9.8125 8.253906 9.964844 8.253906 L 19.820312 8.253906 C 19.972656 8.253906 19.972656 8.488281 19.820312 8.488281 Z M 19.820312 8.488281 "/></g><g clip-rule="nonzero" clip-path="url(#8c5576c319)"><path style=" stroke:none;fill-rule:evenodd;fill:#5e17eb;fill-opacity:1;" d="M 13.453125 8.488281 C 13.347656 8.488281 13.292969 8.367188 13.363281 8.292969 L 14.996094 6.5625 C 15.101562 6.449219 15.273438 6.609375 15.167969 6.722656 L 13.535156 8.453125 C 13.511719 8.476562 13.484375 8.488281 13.453125 8.488281 Z M 13.453125 8.488281 "/></g><g clip-rule="nonzero" clip-path="url(#571c26238f)"><path style=" stroke:none;fill-rule:evenodd;fill:#5e17eb;fill-opacity:1;" d="M 19.003906 7.625 L 15.488281 7.625 C 15.328125 7.625 15.328125 7.390625 15.488281 7.390625 L 19.003906 7.390625 C 19.15625 7.390625 19.15625 7.625 19.003906 7.625 Z M 19.003906 7.625 "/></g><path style=" stroke:none;fill-rule:evenodd;fill:#5e17eb;fill-opacity:1;" d="M 10.863281 7.84375 C 10.304688 7.84375 10.351562 7.898438 10.351562 7.335938 C 10.351562 7.117188 10.632812 7.171875 10.863281 7.171875 C 11.082031 7.171875 11.03125 7.457031 11.03125 7.679688 C 11.03125 7.773438 10.953125 7.84375 10.863281 7.84375 Z M 10.585938 7.609375 L 10.792969 7.609375 L 10.792969 7.40625 L 10.585938 7.40625 Z M 10.585938 7.609375 "/><path style=" stroke:none;fill-rule:evenodd;fill:#5e17eb;fill-opacity:1;" d="M 11.964844 7.84375 C 11.402344 7.84375 11.449219 7.898438 11.449219 7.335938 C 11.449219 7.117188 11.734375 7.171875 11.964844 7.171875 C 12.183594 7.171875 12.128906 7.457031 12.128906 7.679688 C 12.128906 7.773438 12.054688 7.84375 11.964844 7.84375 Z M 11.6875 7.609375 L 11.894531 7.609375 L 11.894531 7.40625 L 11.6875 7.40625 Z M 11.6875 7.609375 "/><path style=" stroke:none;fill-rule:evenodd;fill:#5e17eb;fill-opacity:1;" d="M 13.0625 7.84375 C 12.503906 7.84375 12.550781 7.898438 12.550781 7.335938 C 12.550781 7.117188 12.832031 7.171875 13.0625 7.171875 C 13.277344 7.171875 13.230469 7.457031 13.230469 7.679688 C 13.230469 7.773438 13.152344 7.84375 13.0625 7.84375 Z M 12.785156 7.609375 L 12.992188 7.609375 L 12.992188 7.40625 L 12.785156 7.40625 Z M 12.785156 7.609375 "/><path style=" stroke:none;fill-rule:evenodd;fill:#5e17eb;fill-opacity:1;" d="M 14.949219 12.65625 L 11.066406 12.65625 C 11 12.65625 10.949219 12.605469 10.949219 12.539062 L 10.949219 9.441406 C 10.949219 9.375 11 9.324219 11.066406 9.324219 L 14.949219 9.324219 C 15.015625 9.324219 15.066406 9.375 15.066406 9.441406 L 15.066406 12.539062 C 15.066406 12.605469 15.015625 12.65625 14.949219 12.65625 Z M 11.183594 12.421875 L 14.832031 12.421875 L 14.832031 9.558594 L 11.183594 9.558594 Z M 11.183594 12.421875 "/><path style=" stroke:none;fill-rule:evenodd;fill:#5e17eb;fill-opacity:1;" d="M 13.777344 12.65625 C 13.738281 12.65625 13.695312 12.640625 13.679688 12.597656 L 12.429688 10.515625 L 11.167969 12.597656 C 11.082031 12.734375 10.882812 12.609375 10.964844 12.480469 L 12.332031 10.226562 C 12.378906 10.152344 12.484375 10.152344 12.53125 10.226562 L 13.878906 12.480469 C 13.925781 12.554688 13.867188 12.65625 13.777344 12.65625 Z M 13.777344 12.65625 "/><path style=" stroke:none;fill-rule:evenodd;fill:#5e17eb;fill-opacity:1;" d="M 14.949219 12.65625 C 14.90625 12.65625 14.867188 12.640625 14.847656 12.597656 L 13.855469 10.941406 L 13.363281 11.746094 C 13.289062 11.882812 13.085938 11.757812 13.164062 11.621094 L 13.753906 10.652344 C 13.800781 10.578125 13.910156 10.578125 13.957031 10.652344 L 15.050781 12.480469 C 15.097656 12.554688 15.039062 12.65625 14.949219 12.65625 Z M 14.949219 12.65625 "/><path style=" stroke:none;fill-rule:evenodd;fill:#5e17eb;fill-opacity:1;" d="M 18.769531 9.914062 L 16.121094 9.914062 C 15.960938 9.914062 15.960938 9.679688 16.121094 9.679688 L 18.769531 9.679688 C 18.921875 9.679688 18.921875 9.914062 18.769531 9.914062 Z M 18.769531 9.914062 "/><path style=" stroke:none;fill-rule:evenodd;fill:#5e17eb;fill-opacity:1;" d="M 18.769531 11.109375 L 16.121094 11.109375 C 15.960938 11.109375 15.960938 10.871094 16.121094 10.871094 L 18.769531 10.871094 C 18.921875 10.871094 18.921875 11.109375 18.769531 11.109375 Z M 18.769531 11.109375 "/><path style=" stroke:none;fill-rule:evenodd;fill:#5e17eb;fill-opacity:1;" d="M 18.769531 12.296875 L 16.121094 12.296875 C 15.960938 12.296875 15.960938 12.058594 16.121094 12.058594 L 18.769531 12.058594 C 18.921875 12.058594 18.921875 12.296875 18.769531 12.296875 Z M 18.769531 12.296875 "/><path style=" stroke:none;fill-rule:evenodd;fill:#5e17eb;fill-opacity:1;" d="M 18.769531 13.722656 L 11.128906 13.722656 C 10.976562 13.722656 10.976562 13.484375 11.128906 13.484375 L 18.769531 13.484375 C 18.921875 13.484375 18.921875 13.722656 18.769531 13.722656 Z M 18.769531 13.722656 "/><path style=" stroke:none;fill-rule:evenodd;fill:#5e17eb;fill-opacity:1;" d="M 18.769531 15.015625 L 11.128906 15.015625 C 10.976562 15.015625 10.976562 14.777344 11.128906 14.777344 L 18.769531 14.777344 C 18.921875 14.777344 18.921875 15.015625 18.769531 15.015625 Z M 18.769531 15.015625 "/></g></svg>