<svg xmlns="http://www.w3.org/2000/svg" xmlns:xlink="http://www.w3.org/1999/xlink" width="40" zoomAndPan="magnify" viewBox="0 0 30 30.000001" height="40" preserveAspectRatio="xMidYMid meet" version="1.2"><defs><clipPath id="e464ffa482"><path d="M 0.484375 0 L 29.515625 0 L 29.515625 29.03125 L 0.484375 29.03125 Z M 0.484375 0 "/></clipPath><clipPath id="6cb84740f7"><path d="M 3.128906 4.171875 L 27 4.171875 L 27 25 L 3.128906 25 Z M 3.128906 4.171875 "/></clipPath><clipPath id="64131a3bbc"><path d="M 10.210938 6.386719 L 20 6.386719 L 20 16 L 10.210938 16 Z M 10.210938 6.386719 "/></clipPath><clipPath id="f7eb919353"><path d="M 12 7 L 21.824219 7 L 21.824219 17.273438 L 12 17.273438 Z M 12 7 "/></clipPath></defs><g id="401233cf0c"><g clip-rule="nonzero" clip-path="url(#e464ffa482)"><path style=" stroke:none;fill-rule:nonzero;fill:#ffffff;fill-opacity:1;" d="M 0.484375 0 L 29.515625 0 L 29.515625 29.03125 L 0.484375 29.03125 Z M 0.484375 0 "/><path style=" stroke:none;fill-rule:nonzero;fill:#ffffff;fill-opacity:1;" d="M 0.484375 0 L 29.515625 0 L 29.515625 29.03125 L 0.484375 29.03125 Z M 0.484375 0 "/></g><g clip-rule="nonzero" clip-path="url(#6cb84740f7)"><path style=" stroke:none;fill-rule:nonzero;fill:#5e17eb;fill-opacity:1;" d="M 25.523438 4.179688 L 4.46875 4.179688 C 4.289062 4.179688 4.121094 4.210938 3.957031 4.28125 C 3.792969 4.347656 3.644531 4.445312 3.519531 4.570312 C 3.394531 4.695312 3.296875 4.84375 3.230469 5.007812 C 3.164062 5.171875 3.128906 5.339844 3.128906 5.519531 L 3.128906 19.683594 C 3.128906 19.859375 3.164062 20.03125 3.230469 20.195312 C 3.296875 20.359375 3.394531 20.503906 3.519531 20.628906 C 3.644531 20.757812 3.792969 20.851562 3.957031 20.921875 C 4.121094 20.988281 4.289062 21.023438 4.46875 21.023438 L 11.492188 21.023438 L 11.21875 22.9375 L 8.871094 22.9375 C 8.765625 22.9375 8.675781 22.976562 8.601562 23.050781 C 8.523438 23.125 8.488281 23.214844 8.488281 23.320312 L 8.488281 24.46875 C 8.488281 24.574219 8.523438 24.664062 8.601562 24.738281 C 8.675781 24.816406 8.765625 24.851562 8.871094 24.851562 L 21.121094 24.851562 C 21.226562 24.851562 21.316406 24.816406 21.390625 24.738281 C 21.46875 24.664062 21.503906 24.574219 21.503906 24.46875 L 21.503906 23.320312 C 21.503906 23.214844 21.46875 23.125 21.390625 23.050781 C 21.316406 22.976562 21.226562 22.9375 21.121094 22.9375 L 18.773438 22.9375 L 18.5 21.023438 L 25.523438 21.023438 C 25.703125 21.023438 25.871094 20.988281 26.035156 20.921875 C 26.199219 20.851562 26.34375 20.757812 26.472656 20.628906 C 26.597656 20.503906 26.695312 20.359375 26.761719 20.195312 C 26.828125 20.03125 26.863281 19.859375 26.863281 19.683594 L 26.863281 5.519531 C 26.863281 5.339844 26.828125 5.171875 26.761719 5.007812 C 26.695312 4.84375 26.597656 4.695312 26.472656 4.570312 C 26.34375 4.445312 26.199219 4.347656 26.035156 4.28125 C 25.871094 4.210938 25.703125 4.179688 25.523438 4.179688 Z M 20.738281 23.703125 L 20.738281 24.085938 L 9.253906 24.085938 L 9.253906 23.703125 Z M 11.992188 22.9375 L 12.265625 21.023438 L 17.726562 21.023438 L 18 22.9375 Z M 26.097656 19.683594 C 26.097656 19.84375 26.042969 19.976562 25.929688 20.089844 C 25.816406 20.203125 25.683594 20.257812 25.523438 20.257812 L 4.46875 20.257812 C 4.308594 20.257812 4.175781 20.203125 4.0625 20.089844 C 3.949219 19.976562 3.894531 19.84375 3.894531 19.683594 L 3.894531 18.726562 L 26.097656 18.726562 Z M 26.097656 17.960938 L 3.894531 17.960938 L 3.894531 5.519531 C 3.894531 5.359375 3.949219 5.226562 4.0625 5.113281 C 4.175781 5 4.308594 4.945312 4.46875 4.945312 L 25.523438 4.945312 C 25.683594 4.945312 25.816406 5 25.929688 5.113281 C 26.042969 5.226562 26.097656 5.359375 26.097656 5.519531 Z M 26.097656 17.960938 "/></g><path style=" stroke:none;fill-rule:nonzero;fill:#5e17eb;fill-opacity:1;" d="M 16.144531 19.109375 L 13.847656 19.109375 C 13.742188 19.109375 13.652344 19.148438 13.578125 19.222656 C 13.5 19.296875 13.464844 19.386719 13.464844 19.492188 C 13.464844 19.597656 13.5 19.6875 13.578125 19.761719 C 13.652344 19.835938 13.742188 19.875 13.847656 19.875 L 16.144531 19.875 C 16.25 19.875 16.339844 19.835938 16.414062 19.761719 C 16.488281 19.6875 16.527344 19.597656 16.527344 19.492188 C 16.527344 19.386719 16.488281 19.296875 16.414062 19.222656 C 16.339844 19.148438 16.25 19.109375 16.144531 19.109375 Z M 16.144531 19.109375 "/><g clip-rule="nonzero" clip-path="url(#64131a3bbc)"><path style=" stroke:none;fill-rule:nonzero;fill:#5e17eb;fill-opacity:1;" d="M 16.671875 15.402344 L 11.472656 15.402344 C 10.9375 15.402344 10.5 14.964844 10.5 14.429688 L 10.5 7.644531 C 10.5 7.109375 10.9375 6.671875 11.472656 6.671875 L 18.257812 6.671875 C 18.792969 6.671875 19.230469 7.109375 19.230469 7.644531 L 19.230469 11.777344 C 19.230469 11.855469 19.292969 11.921875 19.371094 11.921875 C 19.449219 11.921875 19.515625 11.855469 19.515625 11.777344 L 19.515625 7.644531 C 19.515625 6.949219 18.953125 6.386719 18.257812 6.386719 L 11.472656 6.386719 C 10.78125 6.386719 10.214844 6.949219 10.214844 7.644531 L 10.214844 14.429688 C 10.214844 15.121094 10.78125 15.6875 11.472656 15.6875 L 16.671875 15.6875 C 16.75 15.6875 16.816406 15.621094 16.816406 15.542969 C 16.816406 15.464844 16.75 15.402344 16.671875 15.402344 "/></g><g clip-rule="nonzero" clip-path="url(#f7eb919353)"><path style=" stroke:none;fill-rule:nonzero;fill:#5e17eb;fill-opacity:1;" d="M 19.722656 14.550781 C 19.683594 14.570312 19.65625 14.601562 19.644531 14.644531 C 19.632812 14.683594 19.636719 14.726562 19.660156 14.761719 L 20.859375 16.542969 L 20.277344 16.933594 L 19.078125 15.152344 C 19.054688 15.121094 19.015625 15.097656 18.976562 15.09375 C 18.96875 15.089844 18.964844 15.089844 18.960938 15.089844 C 18.921875 15.089844 18.886719 15.105469 18.863281 15.132812 L 17.769531 16.183594 L 17.144531 11.648438 L 21.109375 13.9375 Z M 16.871094 10.824219 L 16.082031 10.824219 L 16.207031 10.128906 L 17.042969 10.128906 Z M 16.65625 11.695312 L 15.925781 11.695312 L 16.03125 11.105469 L 16.800781 11.105469 Z M 15.792969 10.824219 L 15.046875 10.824219 L 15.046875 10.128906 L 15.917969 10.128906 Z M 15.636719 11.695312 L 15.046875 11.695312 L 15.046875 11.105469 L 15.742188 11.105469 Z M 14.761719 9.84375 L 13.890625 9.84375 L 13.773438 9.1875 L 14.761719 9.1875 Z M 14.761719 10.824219 L 14.066406 10.824219 L 13.941406 10.128906 L 14.761719 10.128906 Z M 14.761719 11.695312 L 14.222656 11.695312 L 14.117188 11.105469 L 14.761719 11.105469 Z M 13.25 11.695312 L 13.078125 11.105469 L 13.828125 11.105469 L 13.933594 11.695312 Z M 12.996094 10.824219 L 12.792969 10.128906 L 13.652344 10.128906 L 13.777344 10.824219 Z M 12.523438 9.1875 L 13.484375 9.1875 L 13.601562 9.84375 L 12.710938 9.84375 Z M 15.046875 9.1875 L 16.085938 9.1875 L 15.96875 9.84375 L 15.046875 9.84375 Z M 16.375 9.1875 L 17.273438 9.1875 L 17.113281 9.84375 L 16.257812 9.84375 Z M 16.234375 13.976562 C 16.109375 13.976562 16.003906 13.875 16.003906 13.75 C 16.003906 13.621094 16.109375 13.519531 16.234375 13.519531 C 16.359375 13.519531 16.460938 13.621094 16.460938 13.75 C 16.460938 13.875 16.359375 13.976562 16.234375 13.976562 Z M 13.367188 13.976562 C 13.238281 13.976562 13.136719 13.875 13.136719 13.75 C 13.136719 13.621094 13.238281 13.519531 13.367188 13.519531 C 13.492188 13.519531 13.59375 13.621094 13.59375 13.75 C 13.59375 13.875 13.492188 13.976562 13.367188 13.976562 Z M 21.492188 13.832031 L 17.054688 11.269531 L 17.738281 8.480469 C 17.773438 8.34375 17.890625 8.253906 18.03125 8.253906 L 18.546875 8.253906 C 18.625 8.253906 18.6875 8.1875 18.6875 8.109375 C 18.6875 8.03125 18.625 7.96875 18.546875 7.96875 L 18.03125 7.96875 C 17.761719 7.96875 17.527344 8.152344 17.464844 8.410156 L 17.34375 8.902344 L 12.332031 8.902344 C 12.289062 8.902344 12.246094 8.921875 12.21875 8.957031 C 12.191406 8.992188 12.183594 9.039062 12.195312 9.082031 L 13.003906 11.878906 C 13.023438 11.941406 13.078125 11.980469 13.140625 11.980469 L 16.585938 11.980469 L 16.28125 13.230469 L 13.410156 13.230469 C 13.398438 13.230469 13.382812 13.230469 13.371094 13.234375 C 13.367188 13.234375 13.367188 13.234375 13.367188 13.234375 C 13.082031 13.234375 12.851562 13.464844 12.851562 13.75 C 12.851562 14.03125 13.082031 14.261719 13.367188 14.261719 C 13.648438 14.261719 13.878906 14.03125 13.878906 13.75 C 13.878906 13.664062 13.859375 13.582031 13.820312 13.511719 L 15.777344 13.511719 C 15.742188 13.582031 15.71875 13.664062 15.71875 13.75 C 15.71875 14.03125 15.949219 14.261719 16.234375 14.261719 C 16.515625 14.261719 16.746094 14.03125 16.746094 13.75 C 16.746094 13.582031 16.667969 13.433594 16.546875 13.339844 L 16.894531 11.917969 L 17.527344 16.5 C 17.535156 16.554688 17.570312 16.597656 17.621094 16.617188 C 17.671875 16.632812 17.726562 16.621094 17.765625 16.582031 L 18.9375 15.453125 L 20.121094 17.210938 C 20.148438 17.25 20.191406 17.273438 20.238281 17.273438 C 20.265625 17.273438 20.292969 17.265625 20.316406 17.25 L 21.136719 16.699219 C 21.167969 16.675781 21.1875 16.644531 21.195312 16.609375 C 21.203125 16.570312 21.195312 16.53125 21.175781 16.5 L 19.992188 14.742188 L 21.480469 14.085938 C 21.527344 14.0625 21.5625 14.015625 21.566406 13.960938 C 21.566406 13.910156 21.539062 13.859375 21.492188 13.832031 "/></g></g></svg>