<svg xmlns="http://www.w3.org/2000/svg" xmlns:xlink="http://www.w3.org/1999/xlink" width="50" zoomAndPan="magnify" viewBox="0 0 37.5 37.499999" height="50" preserveAspectRatio="xMidYMid meet" version="1.2"><defs><clipPath id="9704d7cdd5"><path d="M 1.960938 3.035156 L 35.265625 3.035156 L 35.265625 36.339844 L 1.960938 36.339844 Z M 1.960938 3.035156 "/></clipPath><clipPath id="091d919962"><path d="M 2 3.035156 L 35 3.035156 L 35 36 L 2 36 Z M 2 3.035156 "/></clipPath><clipPath id="b88a437dd5"><path d="M 6.734375 6.734375 L 32 6.734375 L 32 32 L 6.734375 32 Z M 6.734375 6.734375 "/></clipPath></defs><g id="bf54de1425"><g clip-rule="nonzero" clip-path="url(#9704d7cdd5)"><path style=" stroke:none;fill-rule:nonzero;fill:#ffffff;fill-opacity:1;" d="M 3.058594 3.035156 L 3.050781 4.121094 L 1.960938 4.132812 L 1.960938 35.015625 L 3.042969 35.019531 L 3.046875 36.109375 L 33.941406 36.109375 L 33.953125 35.027344 L 35.035156 35.019531 L 35.035156 4.132812 L 33.953125 4.128906 L 33.945312 3.035156 Z M 3.144531 3.121094 L 33.855469 3.121094 L 33.867188 4.214844 L 34.949219 4.222656 L 34.949219 34.933594 L 33.867188 34.9375 L 33.855469 36.023438 L 3.132812 36.023438 L 3.132812 34.929688 L 2.046875 34.929688 L 2.046875 4.21875 L 3.136719 4.207031 Z M 3.144531 3.121094 "/></g><g clip-rule="nonzero" clip-path="url(#091d919962)"><path style=" stroke:none;fill-rule:nonzero;fill:#ffffff;fill-opacity:1;" d="M 2.476562 3.59375 L 2.476562 35.546875 L 34.519531 35.546875 L 34.519531 3.59375 Z M 2.5625 3.683594 L 34.433594 3.683594 L 34.433594 35.460938 L 2.5625 35.460938 Z M 2.5625 3.683594 "/></g><g clip-rule="nonzero" clip-path="url(#b88a437dd5)"><path style=" stroke:none;fill-rule:nonzero;fill:#ffffff;fill-opacity:1;" d="M 30.5 27.972656 C 30.453125 27.925781 30.40625 27.886719 30.351562 27.84375 L 25.660156 23.921875 C 26.765625 22.128906 26.78125 19.855469 25.695312 18.054688 L 25.695312 12.046875 C 25.695312 12.042969 25.695312 12.039062 25.695312 12.039062 C 25.695312 12.023438 25.6875 12.011719 25.6875 11.996094 C 25.6875 11.988281 25.683594 11.972656 25.683594 11.96875 C 25.664062 11.875 25.628906 11.785156 25.558594 11.722656 L 20.695312 6.855469 C 20.613281 6.78125 20.503906 6.734375 20.394531 6.734375 L 8.996094 6.734375 C 7.839844 6.734375 6.902344 7.671875 6.902344 8.828125 L 6.902344 28.933594 C 6.902344 30.089844 7.839844 31.027344 8.996094 31.027344 L 23.601562 31.027344 C 24.757812 31.027344 25.695312 30.089844 25.695312 28.933594 L 25.695312 28.023438 L 27.730469 30.457031 C 29.425781 32.410156 32.25 29.871094 30.5 27.972656 Z M 25.667969 20.960938 C 25.667969 22.242188 25.171875 23.449219 24.261719 24.355469 C 23.355469 25.257812 22.152344 25.761719 20.871094 25.761719 C 19.589844 25.761719 18.382812 25.261719 17.476562 24.355469 C 15.605469 22.484375 15.605469 19.4375 17.476562 17.570312 C 18.382812 16.664062 19.589844 16.164062 20.871094 16.164062 C 22.152344 16.164062 23.359375 16.660156 24.261719 17.570312 C 25.167969 18.480469 25.667969 19.679688 25.667969 20.960938 Z M 24.855469 28.933594 C 24.855469 29.625 24.292969 30.1875 23.601562 30.1875 L 8.996094 30.1875 C 8.304688 30.1875 7.742188 29.625 7.742188 28.933594 L 7.742188 8.828125 C 7.742188 8.136719 8.304688 7.574219 8.996094 7.574219 L 19.972656 7.574219 L 19.972656 12.039062 C 19.972656 12.269531 20.164062 12.457031 20.394531 12.457031 L 24.855469 12.457031 L 24.855469 16.980469 C 23.792969 15.914062 22.378906 15.328125 20.875 15.328125 C 19.433594 15.328125 18.078125 15.871094 17.03125 16.847656 L 10.628906 16.847656 C 10.398438 16.847656 10.210938 17.039062 10.210938 17.269531 C 10.210938 17.5 10.398438 17.6875 10.628906 17.6875 L 16.296875 17.6875 C 15.871094 18.285156 15.570312 18.949219 15.40625 19.640625 L 10.628906 19.640625 C 10.398438 19.640625 10.210938 19.828125 10.210938 20.058594 C 10.210938 20.289062 10.398438 20.476562 10.628906 20.476562 L 15.261719 20.476562 C 15.207031 21.128906 15.265625 21.789062 15.433594 22.425781 L 10.628906 22.425781 C 10.398438 22.425781 10.210938 22.613281 10.210938 22.84375 C 10.210938 23.074219 10.398438 23.261719 10.628906 23.261719 L 15.734375 23.261719 C 16.007812 23.875 16.390625 24.445312 16.890625 24.949219 C 16.984375 25.042969 17.085938 25.128906 17.183594 25.214844 L 10.628906 25.214844 C 10.398438 25.214844 10.210938 25.402344 10.210938 25.632812 C 10.210938 25.863281 10.398438 26.050781 10.628906 26.050781 L 18.460938 26.050781 C 19.222656 26.410156 20.046875 26.59375 20.875 26.59375 C 21.894531 26.59375 22.910156 26.316406 23.808594 25.765625 L 24.855469 27.019531 Z M 24.855469 28.933594 "/></g><path style=" stroke:none;fill-rule:nonzero;fill:#ffffff;fill-opacity:1;" d="M 10.628906 14.898438 L 16.296875 14.898438 C 16.527344 14.898438 16.714844 14.710938 16.714844 14.480469 C 16.714844 14.25 16.527344 14.058594 16.296875 14.058594 L 10.628906 14.058594 C 10.398438 14.058594 10.210938 14.25 10.210938 14.480469 C 10.210938 14.710938 10.398438 14.898438 10.628906 14.898438 Z M 10.628906 14.898438 "/></g></svg>